<svg classname="w-12" width="52" height="43" viewBox="0 0 52 43" fill="none" xmlns="http://www.w3.org/2000/svg">
<path d="M0.535642 3.51503C-0.133118 2.87887 -0.17502 2.13317 0.406355 1.21435C0.819024 0.561713 1.00234 0.535797 5.19656 0.535797C8.69391 0.535797 9.62428 0.624565 9.8936 0.983546C10.0783 1.22989 10.964 6.69031 11.8616 13.1175C12.7594 19.545 13.5506 24.9767 13.6195 25.1879C13.7187 25.4917 16.7411 25.5558 28.0061 25.4932L42.2673 25.4142L42.6176 24.0741C42.8103 23.3369 43.0414 22.4785 43.1307 22.1662C43.2875 21.6195 42.9024 21.5985 32.7139 21.5985C22.4479 21.5985 22.1163 21.5802 21.531 20.976C20.8129 20.2352 20.7553 19.263 21.3838 18.4938C21.8114 17.9705 22.5364 17.9354 32.9281 17.9354C41.4676 17.9354 44.0792 17.8478 44.2912 17.5538C44.6639 17.037 45.4316 14.0357 45.2442 13.8279C45.1618 13.7366 39.0517 13.6618 31.6664 13.6618C17.4297 13.6618 17.9118 13.711 17.4983 12.2171C17.3597 11.7152 17.4931 11.3321 18.0034 10.7671L18.6972 9.99874H32.6141H46.531L47.2367 7.43611C47.6251 6.02674 47.9426 4.72177 47.9426 4.53618C47.9426 4.2938 43.3506 4.19887 31.6021 4.19887C17.2585 4.19887 15.1863 4.14084 14.6488 3.72355C13.9164 3.15547 13.8411 1.89086 14.4922 1.09414C14.9253 0.563912 15.8639 0.535797 33.0568 0.535797C50.7321 0.535797 51.177 0.550114 51.6572 1.13804C52.3045 1.92987 52.307 1.91769 49.2027 13.0513C47.775 18.172 46.2288 23.7353 45.7668 25.4142C45.2053 27.4542 44.7425 28.5934 44.3709 28.8483C43.943 29.1423 40.1193 29.2299 27.737 29.2299C8.93732 29.2299 10.7187 29.6072 10.1996 25.5147C10.0223 24.1163 9.6331 21.2551 9.33483 19.1564C9.03629 17.0578 8.44554 12.8682 8.02157 9.84612L7.25081 4.3515L4.17247 4.19887C1.78743 4.08074 0.968434 3.92651 0.535642 3.51503Z" fill="#03133B"/>
<path d="M12.4978 38.5018C11.8442 36.0121 12.6665 33.6171 14.6678 32.1799C17.6582 30.0327 21.9291 32.1909 22.4608 36.118C22.6847 37.7706 22.2268 39.3393 21.1095 40.7487C18.4607 44.0891 13.6341 42.8297 12.4978 38.5018Z" fill="#03133B"/>
<path d="M33.2269 36.824C33.2481 34.6958 34.0084 33.2107 35.6271 32.1365C36.4665 31.5794 37.1741 31.3715 38.2393 31.3694C39.8789 31.3663 40.8495 31.822 41.9133 33.0946C42.9895 34.3822 43.2564 35.1286 43.2564 36.8509C43.2564 38.8012 42.7489 40.1724 41.6468 41.1993C38.1555 44.4524 33.1762 41.865 33.2269 36.824Z" fill="#03133B"/>
</svg>
