<?xml version="1.0" standalone="no"?>
<!DOCTYPE svg PUBLIC "-//W3C//DTD SVG 20010904//EN"
 "http://www.w3.org/TR/2001/REC-SVG-20010904/DTD/svg10.dtd">
<svg version="1.0" xmlns="http://www.w3.org/2000/svg"
 width="1200" height="900" viewBox="0 0 1200 900">

<g transform="translate(0.000000,916.000000) scale(0.100000,-0.100000)"
fill="#000000" stroke="none">
<path d="M480 9102 c-230 -148 -400 -340 -459 -519 -26 -78 -29 -282 -6 -381
60 -253 264 -491 485 -565 121 -40 203 -50 346 -44 211 8 351 57 479 164 172
145 282 363 300 595 21 266 -150 530 -488 753 -31 21 -60 35 -64 32 -3 -4 24
-155 61 -336 37 -181 66 -336 64 -345 -5 -23 -380 -438 -388 -429 -4 4 -92
102 -195 217 l-189 209 33 166 c35 181 99 486 107 514 8 26 -4 22 -86 -31z"/>
<path d="M1910 8215 l0 -658 98 6 c53 4 609 7 1235 7 l1138 0 -40 58 c-508
724 -1389 1205 -2268 1239 l-163 6 0 -658z"/>
<path d="M7890 8859 c-122 -17 -324 -61 -441 -94 -366 -106 -744 -302 -1049
-545 -135 -108 -355 -327 -458 -457 -85 -107 -146 -193 -140 -196 1 -1 1118 0
2481 3 l2478 5 -45 64 c-131 185 -392 458 -576 600 -401 311 -839 506 -1350
602 -102 19 -157 22 -475 24 -198 2 -389 -1 -425 -6z"/>
<path d="M170 6865 l0 -525 640 0 640 0 0 525 0 525 -640 0 -640 0 0 -525z"/>
<path d="M1910 6865 l0 -525 1480 0 1481 0 -6 38 c-51 294 -150 592 -290 867
l-71 140 -1297 3 -1297 2 0 -525z"/>
<path d="M5638 7308 c-134 -247 -242 -542 -298 -818 -11 -58 -23 -115 -26
-127 l-4 -23 1373 0 1373 0 62 123 c85 166 175 290 312 427 140 140 263 229
435 315 189 95 396 155 605 178 19 2 -825 5 -1876 5 l-1910 2 -46 -82z"/>
<path d="M9865 7378 c204 -23 423 -89 595 -180 143 -76 233 -142 359 -263 133
-128 237 -263 351 -454 90 -151 89 -152 44 51 -56 247 -135 469 -253 701 l-76
152 -550 1 c-375 1 -525 -1 -470 -8z"/>
<path d="M170 5625 l0 -485 640 0 640 0 0 485 0 485 -640 0 -640 0 0 -485z"/>
<path d="M1910 5625 l0 -485 1453 0 1454 0 21 103 c51 238 77 535 66 745 l-7
122 -1493 0 -1494 0 0 -485z"/>
<path d="M5282 5838 c5 -282 17 -394 62 -596 l21 -97 1334 -3 c1267 -2 1333
-1 1328 15 -99 337 -113 582 -51 916 l7 37 -1353 0 -1352 0 4 -272z"/>
<path d="M9005 6056 c-150 -48 -256 -150 -305 -297 -19 -54 -21 -80 -18 -160
4 -81 10 -107 36 -163 63 -133 197 -234 342 -257 42 -6 589 -9 1540 -7 l1475
3 57 22 c130 50 234 153 280 280 29 80 29 216 0 295 -51 140 -166 247 -307
284 -72 20 -3040 19 -3100 0z m795 -150 c44 -22 89 -79 105 -133 6 -21 3 -23
-37 -23 -37 0 -45 4 -60 30 -55 97 -188 86 -219 -20 -6 -20 -9 -91 -7 -163 l3
-129 39 -35 c35 -32 42 -35 84 -30 36 4 53 12 78 39 17 19 33 40 36 48 3 9 15
11 45 5 41 -6 41 -7 31 -38 -27 -81 -94 -132 -190 -143 -65 -8 -117 15 -166
70 -43 49 -52 91 -52 241 0 153 9 193 56 245 64 70 158 83 254 36z m1785 -7
c25 -12 45 -25 45 -27 0 -3 -9 -20 -20 -38 l-21 -33 -48 25 c-117 58 -241 6
-217 -91 8 -31 43 -49 132 -70 148 -34 184 -69 184 -179 0 -62 -2 -69 -36
-105 -44 -49 -87 -64 -184 -65 -58 0 -88 5 -134 24 -78 33 -89 51 -54 86 l26
27 53 -27 c88 -43 209 -32 239 23 31 59 -12 112 -107 131 -104 21 -132 30
-162 56 -77 65 -61 215 29 268 67 39 192 37 275 -5z m-1249 12 c60 -27 87 -72
92 -148 4 -53 1 -69 -21 -106 -16 -26 -39 -49 -57 -57 l-30 -13 69 -133 70
-134 -52 0 -52 0 -62 124 c-58 117 -65 125 -96 131 -19 4 -47 5 -63 3 l-29 -3
-3 -127 -3 -128 -39 0 -40 0 -1 133 c-1 72 -3 206 -4 297 -1 91 0 168 2 173 2
4 66 7 141 7 112 0 145 -4 178 -19z m314 -286 l0 -305 -40 0 -40 0 0 305 0
305 40 0 40 0 0 -305z m530 265 l0 -40 -85 0 -85 0 0 -265 0 -265 -45 0 -45 0
0 259 0 258 -46 7 c-26 3 -64 6 -85 6 -39 0 -39 0 -39 40 l0 40 215 0 215 0 0
-40z"/>
<path d="M10108 5844 c-9 -9 -10 -129 -2 -161 6 -21 12 -23 83 -23 98 0 119 6
136 41 22 41 18 84 -9 116 -23 26 -30 28 -113 31 -48 2 -91 0 -95 -4z"/>
<path d="M170 4455 l0 -465 640 0 640 0 0 465 0 465 -640 0 -640 0 0 -465z"/>
<path d="M1910 4455 l0 -465 1165 0 1164 0 60 79 c99 130 195 283 274 439 66
129 151 323 171 390 l7 22 -1420 0 -1421 0 0 -465z"/>
<path d="M5449 4868 c87 -253 261 -575 430 -797 l62 -81 2339 0 2339 0 59 78
c140 184 277 417 366 623 67 156 77 189 35 124 -93 -146 -277 -343 -419 -449
-442 -329 -1032 -424 -1560 -250 -384 126 -744 415 -927 742 l-35 62 -1353 0
-1354 0 18 -52z"/>
<path d="M172 3351 c2 -258 5 -471 8 -473 3 -2 290 -2 638 0 l632 3 0 463 0
464 -22 6 c-13 3 -301 6 -641 6 l-618 0 3 -469z"/>
<path d="M1910 3346 l0 -474 83 4 c164 9 324 26 432 45 588 106 1097 363 1551
785 l107 99 -39 7 c-21 4 -510 7 -1086 7 l-1048 1 0 -474z"/>
<path d="M6100 3811 c0 -14 202 -200 312 -287 584 -468 1354 -704 2095 -643
712 58 1327 334 1862 836 l94 88 -39 7 c-60 11 -4324 10 -4324 -1z"/>
<path d="M195 2628 c93 -730 273 -1184 759 -1907 106 -157 477 -693 492 -710
2 -2 4 597 4 1332 l0 1337 -631 0 -631 0 7 -52z"/>
</g>
</svg>
