<svg viewBox="0 0 23 23" fill="none" xmlns="http://www.w3.org/2000/svg">
  <path
    d="M6.5 21.5V10.5M1.5 12.5V19.5C1.5 20.6046 2.39543 21.5 3.5 21.5H16.9262C18.407 21.5 19.6662 20.4197 19.8914 18.9562L20.9683 11.9562C21.2479 10.1389 19.8418 8.5 18.0032 8.5H14.5C13.9477 8.5 13.5 8.05228 13.5 7.5V3.96584C13.5 2.60399 12.396 1.5 11.0342 1.5C10.7093 1.5 10.415 1.6913 10.2831 1.98812L6.76394 9.90614C6.60344 10.2673 6.24532 10.5 5.85013 10.5H3.5C2.39543 10.5 1.5 11.3954 1.5 12.5Z"
    stroke="currentColor" stroke-width="2" stroke-linecap="round" stroke-linejoin="round" />
</svg>