<svg width="20" height="18" viewBox="0 0 20 18" fill="none" xmlns="http://www.w3.org/2000/svg">
<path d="M3.325 5.68461C3.18559 5.68101 3.08436 5.67294 2.99335 5.65483C2.31897 5.52069 1.79181 4.99353 1.65767 4.31915C1.625 4.15494 1.625 3.95746 1.625 3.5625C1.625 3.16754 1.625 2.97006 1.65767 2.80585C1.79181 2.13147 2.31897 1.60431 2.99335 1.47017C3.15756 1.4375 3.35504 1.4375 3.75 1.4375H16.5C16.895 1.4375 17.0924 1.4375 17.2567 1.47017C17.931 1.60431 18.4582 2.13147 18.5923 2.80585C18.625 2.97006 18.625 3.16754 18.625 3.5625C18.625 3.95746 18.625 4.15494 18.5923 4.31915C18.4582 4.99353 17.931 5.52069 17.2567 5.65483C17.1656 5.67294 17.0644 5.68101 16.925 5.68461M8.425 9.9375H11.825M3.325 5.6875H16.925V12.6575C16.925 14.0856 16.925 14.7997 16.6471 15.3452C16.4026 15.825 16.0125 16.2151 15.5327 16.4596C14.9872 16.7375 14.2731 16.7375 12.845 16.7375H7.405C5.97687 16.7375 5.2628 16.7375 4.71732 16.4596C4.23751 16.2151 3.84741 15.825 3.60293 15.3452C3.325 14.7997 3.325 14.0856 3.325 12.6575V5.6875Z" stroke="currentColor" stroke-width="1.5" stroke-linecap="round" stroke-linejoin="round"/>
</svg>
