<svg width="16" height="16" viewBox="0 0 16 16" fill="none" xmlns="http://www.w3.org/2000/svg">
<path d="M7.10018 5.94302C7.23275 5.53053 7.4944 5.18271 7.8388 4.96116C8.18321 4.7396 8.58813 4.65861 8.98186 4.73254C9.37558 4.80646 9.7327 5.03052 9.98997 5.36504C10.2472 5.69956 10.388 6.12294 10.3874 6.56021C10.3874 7.79458 8.69588 8.41176 8.69588 8.41176M8.71769 10.8824H8.72521M8.60491 15C12.1368 15 15 11.866 15 8C15 4.13401 12.1368 1 8.60491 1C5.073 1 2.20982 4.13401 2.20982 8C2.20982 8.78235 2.32707 9.53472 2.54339 10.2372C2.6248 10.5016 2.6655 10.6337 2.67284 10.7353C2.68009 10.8356 2.67461 10.9059 2.65195 11.0034C2.629 11.1021 2.57832 11.2048 2.47698 11.4101L1.24637 13.9033C1.07083 14.259 0.983066 14.4368 1.00271 14.574C1.01982 14.6936 1.08409 14.7988 1.17846 14.8618C1.2868 14.9342 1.47047 14.9134 1.83781 14.8718L5.69068 14.4359C5.80735 14.4227 5.86569 14.4161 5.91887 14.4183C5.97117 14.4205 6.00808 14.4259 6.05909 14.4388C6.11094 14.4518 6.17614 14.4793 6.30656 14.5343C7.01983 14.8351 7.79478 15 8.60491 15Z" stroke="currentColor" stroke-width="1.66667" stroke-linecap="round" stroke-linejoin="round"/>
</svg>
