<svg xmlns="http://www.w3.org/2000/svg" viewBox="0 0 502 502">
	<path stroke="currentColor" fill="none"
		d="M394.754 492h-287.51c-16.598 0-30.053-13.455-30.053-30.053s13.455-30.053 30.053-30.053h287.509c16.598 0 30.053 13.455 30.053 30.053.001 16.598-13.455 30.053-30.052 30.053z" />
	<path
		d="M160.503 406c-.401 0-.805-.024-1.213-.073-5.483-.663-9.39-5.646-8.727-11.128 3.342-27.633 12.567-53.042 26.678-73.481 3.138-4.546 9.367-5.686 13.911-2.547 4.545 3.138 5.686 9.366 2.547 13.911-12.276 17.781-20.327 40.092-23.281 64.519-.613 5.074-4.928 8.799-9.915 8.799zM207.007 313.716a9.98 9.98 0 01-7.859-3.809c-3.419-4.337-2.676-10.625 1.661-14.044 7.748-6.109 16.064-10.832 24.718-14.037 5.178-1.919 10.932.725 12.851 5.904 1.918 5.179-.726 10.933-5.904 12.851-6.691 2.478-13.178 6.174-19.281 10.987a9.969 9.969 0 01-6.186 2.148zM226.247 223.052a9.945 9.945 0 01-5.255-1.5c-25.74-15.939-45.897-38.868-55.305-62.908-2.013-5.143.525-10.944 5.668-12.957 5.145-2.012 10.944.526 12.957 5.668 7.863 20.096 25.07 39.484 47.209 53.192 4.695 2.908 6.145 9.071 3.237 13.767a9.991 9.991 0 01-8.511 4.738z"
		stroke="currentColor" fill="currentColor" />
	<path stroke="currentColor" fill="none"
		d="M107.244 10h287.509c16.598 0 30.053 13.455 30.053 30.053s-13.455 30.053-30.053 30.053H107.244c-16.598 0-30.053-13.455-30.053-30.053S90.647 10 107.244 10z" />
	<path
		d="M394.753 421.894h-6.878c-1.235-46.804-14.953-90.669-38.962-124.165-15.546-21.689-34.284-37.524-54.825-46.729 20.542-9.205 39.279-25.039 54.825-46.729 24.008-33.496 37.727-77.361 38.962-124.165h6.878c22.085 0 40.054-17.968 40.054-40.053S416.839 0 394.753 0H107.245C85.16 0 67.191 17.968 67.191 40.053s17.968 40.053 40.054 40.053h6.878c1.235 46.804 14.953 90.669 38.962 124.165 15.546 21.689 34.284 37.524 54.825 46.729-20.542 9.205-39.279 25.039-54.825 46.729-24.008 33.496-37.727 77.361-38.962 124.165h-6.878c-22.085 0-40.054 17.968-40.054 40.053S85.16 502 107.245 502h287.509c22.085 0 40.054-17.968 40.054-40.053s-17.969-40.053-40.055-40.053zM87.191 40.053C87.191 28.996 96.188 20 107.245 20h287.509c11.058 0 20.054 8.996 20.054 20.053s-8.996 20.053-20.054 20.053H107.245c-11.057 0-20.054-8.995-20.054-20.053zm46.939 40.053h233.739c-2.553 88.969-53.993 160.227-116.87 160.227S136.682 169.075 134.13 80.106zm116.869 181.561c62.877 0 114.317 71.258 116.869 160.227H134.13c2.552-88.969 53.992-160.227 116.869-160.227zM394.753 482H107.245c-11.058 0-20.054-8.996-20.054-20.053s8.996-20.053 20.054-20.053h287.509c11.058 0 20.054 8.996 20.054 20.053S405.811 482 394.753 482z"
		stroke="currentColor" fill="currentColor" stroke-width="2" />
</svg>