<svg viewBox="0 0 23 22" fill="none" xmlns="http://www.w3.org/2000/svg">
  <path
    d="M11.5 15.5C11.5 18.2614 13.7386 20.5 16.5 20.5C19.2614 20.5 21.5 18.2614 21.5 15.5C21.5 12.7386 19.2614 10.5 16.5 10.5C13.7386 10.5 11.5 12.7386 11.5 15.5ZM11.5 15.5C11.5 14.3742 11.8721 13.3353 12.5 12.4995V3.5M11.5 15.5C11.5 16.3254 11.7 17.104 12.0541 17.7901C11.2117 18.5018 9.26584 19 7 19C3.96243 19 1.5 18.1046 1.5 17V3.5M12.5 3.5C12.5 4.60457 10.0376 5.5 7 5.5C3.96243 5.5 1.5 4.60457 1.5 3.5M12.5 3.5C12.5 2.39543 10.0376 1.5 7 1.5C3.96243 1.5 1.5 2.39543 1.5 3.5M1.5 12.5C1.5 13.6046 3.96243 14.5 7 14.5C9.189 14.5 11.0793 14.035 11.9646 13.3618M12.5 8C12.5 9.10457 10.0376 10 7 10C3.96243 10 1.5 9.10457 1.5 8"
    stroke="currentColor" stroke-width="2" stroke-linecap="round" stroke-linejoin="round" />
</svg>