<svg viewBox="0 0 21 21" fill="none" xmlns="http://www.w3.org/2000/svg">
  <path
    d="M13.5 16.5C13.5 18.1569 14.8431 19.5 16.5 19.5C18.1569 19.5 19.5 18.1569 19.5 16.5C19.5 14.8431 18.1569 13.5 16.5 13.5C14.8431 13.5 13.5 14.8431 13.5 16.5ZM13.5 16.5C11.1131 16.5 8.82387 15.5518 7.13604 13.864C5.44821 12.1761 4.5 9.88695 4.5 7.5M4.5 7.5C6.15685 7.5 7.5 6.15685 7.5 4.5C7.5 2.84315 6.15685 1.5 4.5 1.5C2.84315 1.5 1.5 2.84315 1.5 4.5C1.5 6.15685 2.84315 7.5 4.5 7.5ZM4.5 7.5V19.5"
    stroke="currentColor" stroke-width="2" stroke-linecap="round" stroke-linejoin="round" />
</svg>