<svg width="20" height="20" viewBox="0 0 20 20" fill="none" xmlns="http://www.w3.org/2000/svg">
<path d="M7.2 12.1333C7.2 13.1643 8.03574 14 9.06667 14H10.8C11.9046 14 12.8 13.1046 12.8 12C12.8 10.8954 11.9046 10 10.8 10H9.2C8.09543 10 7.2 9.10457 7.2 8C7.2 6.89543 8.09543 6 9.2 6H10.9333C11.9643 6 12.8 6.83574 12.8 7.86667M10 4.8V6M10 14V15.2M18 10C18 14.4183 14.4183 18 10 18C5.58172 18 2 14.4183 2 10C2 5.58172 5.58172 2 10 2C14.4183 2 18 5.58172 18 10Z" stroke="currentColor" stroke-width="1.66667" stroke-linecap="round" stroke-linejoin="round"/>
</svg>
