<svg xmlns="http://www.w3.org/2000/svg" viewBox="0 0 20 20" fill="none">
  <path
    d="M2 6.55L8.94018 11.4081C9.50218 11.8015 9.78318 11.9982 10.0888 12.0744C10.3588 12.1417 10.6412 12.1417 10.9112 12.0744C11.2168 11.9982 11.4978 11.8015 12.0598 11.4081L19 6.55M6.08 17.6H14.92C16.3481 17.6 17.0622 17.6 17.6077 17.3221C18.0875 17.0776 18.4776 16.6875 18.7221 16.2077C19 15.6622 19 14.9481 19 13.52V8.08C19 6.65187 19 5.9378 18.7221 5.39232C18.4776 4.91251 18.0875 4.52241 17.6077 4.27793C17.0622 4 16.3481 4 14.92 4H6.08C4.65187 4 3.9378 4 3.39232 4.27793C2.91251 4.52241 2.52241 4.91251 2.27793 5.39232C2 5.9378 2 6.65187 2 8.08V13.52C2 14.9481 2 15.6622 2.27793 16.2077C2.52241 16.6875 2.91251 17.0776 3.39232 17.3221C3.9378 17.6 4.65187 17.6 6.08 17.6Z"
    stroke="currentColor" stroke-width="1.66667" stroke-linecap="round" stroke-linejoin="round" />
</svg>