<svg viewBox="0 0 27 32" fill="none" xmlns="http://www.w3.org/2000/svg">
  <path
    d="M24.3333 16.7083V8.63334C24.3333 6.25311 24.3333 5.063 23.8701 4.15388C23.4626 3.35419 22.8125 2.70402 22.0128 2.29656C21.1037 1.83334 19.9135 1.83334 17.5333 1.83334H8.46666C6.08643 1.83334 4.89632 1.83334 3.9872 2.29656C3.18751 2.70402 2.53734 3.35419 2.12988 4.15388C1.66666 5.063 1.66666 6.25311 1.66666 8.63334V23.3667C1.66666 25.7469 1.66666 26.937 2.12988 27.8461C2.53734 28.6458 3.18751 29.296 3.9872 29.7034C4.89632 30.1667 6.0864 30.1667 8.46656 30.1667H13M16.5417 25.9167L19.375 28.75L25.75 22.375"
    stroke="currentColor" stroke-width="2" stroke-linecap="round" stroke-linejoin="round" />
</svg>