<svg viewBox="0 0 16 16" fill="none" xmlns="http://www.w3.org/2000/svg">
  <path
    d="M1.33334 8L7.7615 11.2141C7.84895 11.2578 7.89268 11.2797 7.93854 11.2883C7.97917 11.2959 8.02085 11.2959 8.06148 11.2883C8.10734 11.2797 8.15107 11.2578 8.23852 11.2141L14.6667 8M1.33334 11.3333L7.7615 14.5474C7.84895 14.5911 7.89268 14.613 7.93854 14.6216C7.97917 14.6292 8.02085 14.6292 8.06148 14.6216C8.10734 14.613 8.15107 14.5911 8.23852 14.5474L14.6667 11.3333M1.33334 4.66667L7.7615 1.45259C7.84895 1.40887 7.89268 1.387 7.93854 1.3784C7.97917 1.37078 8.02085 1.37078 8.06148 1.3784C8.10734 1.387 8.15107 1.40887 8.23852 1.45259L14.6667 4.66667L8.23852 7.88075C8.15107 7.92447 8.10734 7.94634 8.06148 7.95494C8.02085 7.96256 7.97917 7.96256 7.93854 7.95494C7.89268 7.94634 7.84895 7.92447 7.7615 7.88075L1.33334 4.66667Z"
    stroke="currentColor" stroke-width="1.33333" stroke-linecap="round" stroke-linejoin="round" />
</svg>