<svg width="359" height="45" viewBox="0 0 359 45" fill="none" xmlns="http://www.w3.org/2000/svg">
<g filter="url(#filter0_d_30_58199)">
<rect x="2" y="1" width="357" height="44" rx="8" fill="white"/>
<g clip-path="url(#clip0_30_58199)">
<path d="M35 22.1111H19M30.5556 15V18.5556M23.4444 15V18.5556M23.2667 32.7778H30.7333C32.2268 32.7778 32.9735 32.7778 33.544 32.4871C34.0457 32.2315 34.4537 31.8235 34.7094 31.3218C35 30.7513 35 30.0046 35 28.5111V21.0444C35 19.551 35 18.8042 34.7094 18.2338C34.4537 17.732 34.0457 17.3241 33.544 17.0684C32.9735 16.7778 32.2268 16.7778 30.7333 16.7778H23.2667C21.7732 16.7778 21.0265 16.7778 20.456 17.0684C19.9543 17.3241 19.5463 17.732 19.2906 18.2338C19 18.8042 19 19.551 19 21.0444V28.5111C19 30.0046 19 30.7513 19.2906 31.3218C19.5463 31.8235 19.9543 32.2315 20.456 32.4871C21.0265 32.7778 21.7732 32.7778 23.2667 32.7778Z" stroke="currentColor" stroke-width="1.66667" stroke-linecap="round" stroke-linejoin="round"/>
</g>
<path d="M49 29.1591C48.1439 29.1591 47.4148 28.9261 46.8125 28.4602C46.2102 27.9905 45.75 27.3106 45.4318 26.4205C45.1136 25.5265 44.9545 24.447 44.9545 23.1818C44.9545 21.9242 45.1136 20.8504 45.4318 19.9602C45.7538 19.0663 46.2159 18.3845 46.8182 17.9148C47.4242 17.4413 48.1515 17.2045 49 17.2045C49.8485 17.2045 50.5739 17.4413 51.1761 17.9148C51.7822 18.3845 52.2443 19.0663 52.5625 19.9602C52.8845 20.8504 53.0455 21.9242 53.0455 23.1818C53.0455 24.447 52.8864 25.5265 52.5682 26.4205C52.25 27.3106 51.7898 27.9905 51.1875 28.4602C50.5852 28.9261 49.8561 29.1591 49 29.1591ZM49 27.9091C49.8485 27.9091 50.5076 27.5 50.9773 26.6818C51.447 25.8636 51.6818 24.697 51.6818 23.1818C51.6818 22.1742 51.5739 21.3163 51.358 20.608C51.1458 19.8996 50.839 19.3598 50.4375 18.9886C50.0398 18.6174 49.5606 18.4318 49 18.4318C48.1591 18.4318 47.5019 18.8466 47.0284 19.6761C46.5549 20.5019 46.3182 21.6705 46.3182 23.1818C46.3182 24.1894 46.4242 25.0455 46.6364 25.75C46.8485 26.4545 47.1534 26.9905 47.5511 27.358C47.9527 27.7254 48.4356 27.9091 49 27.9091ZM58.8409 29.1591C58.1742 29.1591 57.5739 29.0265 57.0398 28.7614C56.5057 28.4962 56.0777 28.1326 55.7557 27.6705C55.4337 27.2083 55.2576 26.6818 55.2273 26.0909H56.5909C56.6439 26.6174 56.8826 27.053 57.3068 27.3977C57.7348 27.7386 58.2462 27.9091 58.8409 27.9091C59.3182 27.9091 59.7424 27.7973 60.1136 27.5739C60.4886 27.3504 60.7822 27.0436 60.9943 26.6534C61.2102 26.2595 61.3182 25.8144 61.3182 25.3182C61.3182 24.8106 61.2064 24.358 60.983 23.9602C60.7633 23.5587 60.4602 23.2424 60.0739 23.0114C59.6875 22.7803 59.2462 22.6629 58.75 22.6591C58.3939 22.6553 58.0284 22.7102 57.6534 22.8239C57.2784 22.9337 56.9697 23.0758 56.7273 23.25L55.4091 23.0909L56.1136 17.3636H62.1591V18.6136H57.2955L56.8864 22.0455H56.9545C57.1932 21.8561 57.4924 21.6989 57.8523 21.5739C58.2121 21.4489 58.5871 21.3864 58.9773 21.3864C59.6894 21.3864 60.3239 21.5568 60.8807 21.8977C61.4413 22.2348 61.8807 22.697 62.1989 23.2841C62.5208 23.8712 62.6818 24.5417 62.6818 25.2955C62.6818 26.0379 62.5152 26.7008 62.1818 27.2841C61.8523 27.8636 61.3977 28.322 60.8182 28.6591C60.2386 28.9924 59.5795 29.1591 58.8409 29.1591ZM69.0753 16.8182L65.3253 30.75H64.098L67.848 16.8182H69.0753ZM74.733 17.3636V29H73.3239V18.8409H73.2557L70.4148 20.7273V19.2955L73.3239 17.3636H74.733ZM77.8068 26.6136V25.4545L82.9205 17.3636H83.7614V19.1591H83.1932L79.3295 25.2727V25.3636H86.2159V26.6136H77.8068ZM83.2841 29V26.2614V25.7216V17.3636H84.625V29H83.2841ZM92.4815 16.8182L88.7315 30.75H87.5043L91.2543 16.8182H92.4815ZM94.0483 29V27.9773L97.8892 23.7727C98.34 23.2803 98.7112 22.8523 99.0028 22.4886C99.2945 22.1212 99.5104 21.7765 99.6506 21.4545C99.7945 21.1288 99.8665 20.7879 99.8665 20.4318C99.8665 20.0227 99.768 19.6686 99.571 19.3693C99.3778 19.0701 99.1127 18.839 98.7756 18.6761C98.4384 18.5133 98.0597 18.4318 97.6392 18.4318C97.1922 18.4318 96.8021 18.5246 96.4688 18.7102C96.1392 18.892 95.8835 19.1477 95.7017 19.4773C95.5237 19.8068 95.4347 20.1932 95.4347 20.6364H94.0938C94.0938 19.9545 94.2509 19.3561 94.5653 18.8409C94.8797 18.3258 95.3078 17.9242 95.8494 17.6364C96.3949 17.3485 97.0066 17.2045 97.6847 17.2045C98.3665 17.2045 98.9706 17.3485 99.4972 17.6364C100.024 17.9242 100.437 18.3125 100.736 18.8011C101.035 19.2898 101.185 19.8333 101.185 20.4318C101.185 20.8598 101.107 21.2784 100.952 21.6875C100.8 22.0928 100.535 22.5455 100.156 23.0455C99.7812 23.5417 99.2604 24.1477 98.5938 24.8636L95.9801 27.6591V27.75H101.389V29H94.0483ZM107.531 29.1591C106.675 29.1591 105.946 28.9261 105.344 28.4602C104.741 27.9905 104.281 27.3106 103.963 26.4205C103.645 25.5265 103.486 24.447 103.486 23.1818C103.486 21.9242 103.645 20.8504 103.963 19.9602C104.285 19.0663 104.747 18.3845 105.349 17.9148C105.955 17.4413 106.683 17.2045 107.531 17.2045C108.38 17.2045 109.105 17.4413 109.707 17.9148C110.313 18.3845 110.776 19.0663 111.094 19.9602C111.416 20.8504 111.577 21.9242 111.577 23.1818C111.577 24.447 111.418 25.5265 111.099 26.4205C110.781 27.3106 110.321 27.9905 109.719 28.4602C109.116 28.9261 108.387 29.1591 107.531 29.1591ZM107.531 27.9091C108.38 27.9091 109.039 27.5 109.509 26.6818C109.978 25.8636 110.213 24.697 110.213 23.1818C110.213 22.1742 110.105 21.3163 109.889 20.608C109.677 19.8996 109.37 19.3598 108.969 18.9886C108.571 18.6174 108.092 18.4318 107.531 18.4318C106.69 18.4318 106.033 18.8466 105.56 19.6761C105.086 20.5019 104.849 21.6705 104.849 23.1818C104.849 24.1894 104.955 25.0455 105.168 25.75C105.38 26.4545 105.685 26.9905 106.082 27.358C106.484 27.7254 106.967 27.9091 107.531 27.9091ZM113.736 29V27.9773L117.577 23.7727C118.027 23.2803 118.399 22.8523 118.69 22.4886C118.982 22.1212 119.198 21.7765 119.338 21.4545C119.482 21.1288 119.554 20.7879 119.554 20.4318C119.554 20.0227 119.455 19.6686 119.259 19.3693C119.065 19.0701 118.8 18.839 118.463 18.6761C118.126 18.5133 117.747 18.4318 117.327 18.4318C116.88 18.4318 116.49 18.5246 116.156 18.7102C115.827 18.892 115.571 19.1477 115.389 19.4773C115.211 19.8068 115.122 20.1932 115.122 20.6364H113.781C113.781 19.9545 113.938 19.3561 114.253 18.8409C114.567 18.3258 114.995 17.9242 115.537 17.6364C116.082 17.3485 116.694 17.2045 117.372 17.2045C118.054 17.2045 118.658 17.3485 119.185 17.6364C119.711 17.9242 120.124 18.3125 120.423 18.8011C120.723 19.2898 120.872 19.8333 120.872 20.4318C120.872 20.8598 120.795 21.2784 120.639 21.6875C120.488 22.0928 120.223 22.5455 119.844 23.0455C119.469 23.5417 118.948 24.1477 118.281 24.8636L115.668 27.6591V27.75H121.077V29H113.736ZM127.355 29.1591C126.605 29.1591 125.937 29.0303 125.349 28.7727C124.766 28.5152 124.302 28.1572 123.957 27.6989C123.616 27.2367 123.431 26.7008 123.401 26.0909H124.832C124.863 26.4659 124.991 26.7898 125.219 27.0625C125.446 27.3314 125.743 27.5398 126.111 27.6875C126.478 27.8352 126.885 27.9091 127.332 27.9091C127.832 27.9091 128.276 27.822 128.662 27.6477C129.048 27.4735 129.351 27.2311 129.571 26.9205C129.791 26.6098 129.901 26.25 129.901 25.8409C129.901 25.4129 129.795 25.036 129.582 24.7102C129.37 24.3807 129.06 24.1231 128.651 23.9375C128.241 23.7519 127.741 23.6591 127.151 23.6591H126.219V22.4091H127.151C127.613 22.4091 128.018 22.3258 128.366 22.1591C128.719 21.9924 128.993 21.7576 129.19 21.4545C129.391 21.1515 129.491 20.7955 129.491 20.3864C129.491 19.9924 129.404 19.6496 129.23 19.358C129.056 19.0663 128.81 18.839 128.491 18.6761C128.177 18.5133 127.806 18.4318 127.378 18.4318C126.976 18.4318 126.598 18.5057 126.241 18.6534C125.889 18.7973 125.601 19.0076 125.378 19.2841C125.154 19.5568 125.033 19.8864 125.014 20.2727H123.651C123.673 19.6629 123.857 19.1288 124.202 18.6705C124.546 18.2083 124.997 17.8485 125.554 17.5909C126.115 17.3333 126.73 17.2045 127.401 17.2045C128.12 17.2045 128.738 17.3504 129.253 17.642C129.768 17.9299 130.164 18.3106 130.44 18.7841C130.717 19.2576 130.855 19.7689 130.855 20.3182C130.855 20.9735 130.683 21.5322 130.338 21.9943C129.997 22.4564 129.533 22.7765 128.946 22.9545V23.0455C129.681 23.1667 130.255 23.4792 130.668 23.983C131.08 24.483 131.287 25.1023 131.287 25.8409C131.287 26.4735 131.115 27.0417 130.77 27.5455C130.429 28.0455 129.963 28.4394 129.372 28.7273C128.781 29.0152 128.109 29.1591 127.355 29.1591Z" fill="currentColor"/>
<rect x="2.5" y="1.5" width="356" height="43" rx="7.5" stroke="#D0D5DD"/>
</g>
<defs>
<filter id="filter0_d_30_58199" x="0" y="0" width="361" height="48" filterUnits="userSpaceOnUse" color-interpolation-filters="sRGB">
<feFlood flood-opacity="0" result="BackgroundImageFix"/>
<feColorMatrix in="SourceAlpha" type="matrix" values="0 0 0 0 0 0 0 0 0 0 0 0 0 0 0 0 0 0 127 0" result="hardAlpha"/>
<feOffset dy="1"/>
<feGaussianBlur stdDeviation="1"/>
<feColorMatrix type="matrix" values="0 0 0 0 0.0627451 0 0 0 0 0.0941176 0 0 0 0 0.156863 0 0 0 0.05 0"/>
<feBlend mode="normal" in2="BackgroundImageFix" result="effect1_dropShadow_30_58199"/>
<feBlend mode="normal" in="SourceGraphic" in2="effect1_dropShadow_30_58199" result="shape"/>
</filter>
<clipPath id="clip0_30_58199">
<rect width="20" height="20" fill="white" transform="translate(16 13)"/>
</clipPath>
</defs>
</svg>
