<svg viewBox="0 0 18 16" fill="none" xmlns="http://www.w3.org/2000/svg">
  <path
    d="M1 3.9L7.53194 8.47235C8.06087 8.84261 8.32534 9.02774 8.61301 9.09945C8.86712 9.16279 9.13288 9.16279 9.38699 9.09945C9.67466 9.02774 9.93913 8.84261 10.4681 8.47236L17 3.9M4.84 14.3H13.16C14.5041 14.3 15.1762 14.3 15.6896 14.0384C16.1412 13.8083 16.5083 13.4412 16.7384 12.9896C17 12.4762 17 11.8041 17 10.46V5.34C17 3.99587 17 3.32381 16.7384 2.81042C16.5083 2.35883 16.1412 1.99168 15.6896 1.76158C15.1762 1.5 14.5041 1.5 13.16 1.5H4.84C3.49587 1.5 2.82381 1.5 2.31042 1.76158C1.85883 1.99168 1.49168 2.35883 1.26158 2.81042C1 3.32381 1 3.99587 1 5.34V10.46C1 11.8041 1 12.4762 1.26158 12.9896C1.49168 13.4412 1.85883 13.8083 2.31042 14.0384C2.82381 14.3 3.49587 14.3 4.84 14.3Z"
    stroke="currentColor" stroke-width="1.66667" stroke-linecap="round" stroke-linejoin="round" />
</svg>