<svg width="16" height="16" viewBox="0 0 16 16" fill="none" xmlns="http://www.w3.org/2000/svg">
<g clip-path="url(#clip0_9_51997)">
<path d="M15.2 6.66667L15.2 2.4M15.2 2.4H10.9334M15.2 2.4L9.51114 8.08889M7.3778 3.82222H5.81336C4.61858 3.82222 4.02119 3.82222 3.56484 4.05474C3.16343 4.25927 2.83707 4.58563 2.63254 4.98704C2.40002 5.44339 2.40002 6.04078 2.40002 7.23556V11.7867C2.40002 12.9814 2.40002 13.5788 2.63254 14.0352C2.83707 14.4366 3.16343 14.7629 3.56484 14.9675C4.02119 15.2 4.61858 15.2 5.81336 15.2H10.3645C11.5592 15.2 12.1566 15.2 12.613 14.9675C13.0144 14.7629 13.3408 14.4366 13.5453 14.0352C13.7778 13.5788 13.7778 12.9814 13.7778 11.7867V10.2222" stroke="currentColor" stroke-width="1.66667" stroke-linecap="round" stroke-linejoin="round"/>
</g>
<defs>
<clipPath id="clip0_9_51997">
<rect width="16" height="16" fill="white"/>
</clipPath>
</defs>
</svg>
