<svg width="16" height="19" viewBox="0 0 16 19" fill="none" xmlns="http://www.w3.org/2000/svg">
<path d="M14.1765 10.1471V5.45294C14.1765 4.06928 14.1765 3.37745 13.9072 2.84896C13.6703 2.38409 13.2924 2.00614 12.8275 1.76928C12.299 1.5 11.6072 1.5 10.2235 1.5H4.95294C3.56928 1.5 2.87745 1.5 2.34896 1.76928C1.88409 2.00614 1.50614 2.38409 1.26928 2.84896C1 3.37745 1 4.06928 1 5.45294V14.0176C1 15.4013 1 16.0931 1.26928 16.6216C1.50614 17.0865 1.88409 17.4644 2.34896 17.7013C2.87745 17.9706 3.56928 17.9706 4.95294 17.9706H7.58824M9.23529 8.91177H4.29412M5.94118 12.2059H4.29412M10.8824 5.61765H4.29412M9.64706 15.5L11.2941 17.1471L15 13.4412" stroke="#475467" stroke-width="1.66667" stroke-linecap="round" stroke-linejoin="round"/>
</svg>
