<svg viewBox="0 0 28 32" fill="none" xmlns="http://www.w3.org/2000/svg">
  <path
    d="M26.75 13.1667H1.25M26.75 16.7083V11.4667C26.75 9.08644 26.75 7.89633 26.2868 6.98721C25.8793 6.18752 25.2291 5.53735 24.4295 5.12989C23.5203 4.66667 22.3302 4.66667 19.95 4.66667H8.05C5.66978 4.66667 4.47967 4.66667 3.57054 5.12989C2.77085 5.53735 2.12068 6.18752 1.71322 6.98721C1.25 7.89633 1.25 9.08644 1.25 11.4667V23.3667C1.25 25.7469 1.25 26.937 1.71322 27.8461C2.12068 28.6458 2.77085 29.296 3.57054 29.7034C4.47967 30.1667 5.66978 30.1667 8.05 30.1667H14M19.6667 1.83333V7.5M8.33333 1.83333V7.5M17.5417 25.9167L20.375 28.75L26.75 22.375"
    stroke="currentColor" stroke-width="2" stroke-linecap="round" stroke-linejoin="round" />
</svg>