									<svg width="auto" height="15" viewBox="0 0 35 15" fill="none" xmlns="http://www.w3.org/2000/svg">
										<path fill-rule="evenodd" clip-rule="evenodd" d="M18.8671 2.3559L16.5642 2.86465V0.942692L18.8671 0.443359V2.3559ZM23.656 3.42051C22.7569 3.42051 22.1789 3.85389 21.8578 4.15538L21.7386 3.57125H19.7201V14.5566L22.0138 14.0573L22.023 11.391C22.3533 11.636 22.8395 11.9846 23.6469 11.9846C25.2891 11.9846 26.7846 10.6279 26.7846 7.64129C26.7754 4.90909 25.2616 3.42051 23.656 3.42051ZM23.1056 9.91183C22.5643 9.91183 22.2431 9.71398 22.023 9.46902L22.0138 5.9737C22.2523 5.70048 22.5826 5.51205 23.1056 5.51205C23.9404 5.51205 24.5184 6.47303 24.5184 7.70723C24.5184 8.96969 23.9496 9.91183 23.1056 9.91183ZM34.0143 7.7355C34.0143 5.32363 32.8766 3.42051 30.7023 3.42051C28.5187 3.42051 27.1976 5.32363 27.1976 7.71666C27.1976 10.5525 28.7572 11.9845 30.9958 11.9845C32.0876 11.9845 32.9133 11.7302 33.5372 11.3722V9.48788C32.9133 9.8082 32.1977 10.0061 31.2894 10.0061C30.3995 10.0061 29.6105 9.68572 29.5096 8.574H33.9959C33.9959 8.52208 33.9992 8.40411 34.003 8.2682C34.0082 8.08354 34.0143 7.86575 34.0143 7.7355ZM29.482 6.84047C29.482 5.77586 30.115 5.33305 30.693 5.33305C31.2527 5.33305 31.849 5.77586 31.849 6.84047H29.482ZM16.5641 3.58069H18.8669V11.8244H16.5641V3.58069ZM13.9495 3.58068L14.0963 4.27786C14.6376 3.26035 15.711 3.46762 16.0046 3.58068V5.7476C15.7202 5.64396 14.8027 5.51206 14.2614 6.23751V11.8244H11.9678V3.58068H13.9495ZM9.50885 1.53623L7.27023 2.02614L7.26106 9.57266C7.26106 10.967 8.27944 11.994 9.63729 11.994C10.3896 11.994 10.9401 11.8526 11.2429 11.6831V9.77051C10.9493 9.89299 9.49967 10.3264 9.49967 8.93201V5.58742H11.2429V3.58067H9.49967L9.50885 1.53623ZM4.08675 5.46497C3.60049 5.46497 3.3069 5.60629 3.3069 5.97372C3.3069 6.3749 3.81217 6.55138 4.43902 6.77032C5.46092 7.12724 6.80593 7.59701 6.81162 9.33716C6.81162 11.0236 5.49964 11.994 3.59132 11.994C2.8023 11.994 1.93988 11.8338 1.08664 11.457V9.21468C1.85731 9.64806 2.82982 9.96839 3.59132 9.96839C4.1051 9.96839 4.47208 9.82707 4.47208 9.39369C4.47208 8.94931 3.92436 8.74619 3.26311 8.50097C2.25607 8.12752 0.985718 7.65642 0.985718 6.08678C0.985718 4.41919 2.2243 3.42053 4.08675 3.42053C4.84824 3.42053 5.60057 3.54301 6.36206 3.85391V6.06794C5.66479 5.68166 4.78402 5.46497 4.08675 5.46497Z" fill="#6461FC"/>
									</svg>