<svg width="4" height="14" viewBox="0 0 4 14" fill="none" xmlns="http://www.w3.org/2000/svg">
<path d="M2.25 7.75C2.66421 7.75 3 7.41421 3 7C3 6.58579 2.66421 6.25 2.25 6.25C1.83579 6.25 1.5 6.58579 1.5 7C1.5 7.41421 1.83579 7.75 2.25 7.75Z" stroke="#344054" stroke-width="1.66667" stroke-linecap="round" stroke-linejoin="round"/>
<path d="M2.25 2.5C2.66421 2.5 3 2.16421 3 1.75C3 1.33579 2.66421 1 2.25 1C1.83579 1 1.5 1.33579 1.5 1.75C1.5 2.16421 1.83579 2.5 2.25 2.5Z" stroke="#344054" stroke-width="1.66667" stroke-linecap="round" stroke-linejoin="round"/>
<path d="M2.25 13C2.66421 13 3 12.6642 3 12.25C3 11.8358 2.66421 11.5 2.25 11.5C1.83579 11.5 1.5 11.8358 1.5 12.25C1.5 12.6642 1.83579 13 2.25 13Z" stroke="#344054" stroke-width="1.66667" stroke-linecap="round" stroke-linejoin="round"/>
</svg>
