<svg viewBox="0 0 17 23" fill="none" xmlns="http://www.w3.org/2000/svg">
  <path
    d="M5.5 18H11.5M3.1 1.5H13.9C14.4601 1.5 14.7401 1.5 14.954 1.60899C15.1422 1.70487 15.2951 1.85785 15.391 2.04601C15.5 2.25992 15.5 2.53995 15.5 3.1V5.17452C15.5 5.6637 15.5 5.90829 15.4447 6.13846C15.3957 6.34254 15.3149 6.53763 15.2053 6.71657C15.0816 6.9184 14.9086 7.09135 14.5627 7.43726L11.6314 10.3686C11.2354 10.7646 11.0373 10.9627 10.9632 11.191C10.8979 11.3918 10.8979 11.6082 10.9632 11.809C11.0373 12.0373 11.2354 12.2354 11.6314 12.6314L14.5627 15.5627C14.9086 15.9086 15.0816 16.0816 15.2053 16.2834C15.3149 16.4624 15.3957 16.6575 15.4447 16.8615C15.5 17.0917 15.5 17.3363 15.5 17.8255V19.9C15.5 20.4601 15.5 20.7401 15.391 20.954C15.2951 21.1422 15.1422 21.2951 14.954 21.391C14.7401 21.5 14.4601 21.5 13.9 21.5H3.1C2.53995 21.5 2.25992 21.5 2.04601 21.391C1.85785 21.2951 1.70487 21.1422 1.60899 20.954C1.5 20.7401 1.5 20.4601 1.5 19.9V17.8255C1.5 17.3363 1.5 17.0917 1.55526 16.8615C1.60425 16.6575 1.68506 16.4624 1.79472 16.2834C1.9184 16.0816 2.09135 15.9086 2.43726 15.5627L5.36863 12.6314C5.76465 12.2354 5.96265 12.0373 6.03684 11.809C6.1021 11.6082 6.1021 11.3918 6.03684 11.191C5.96266 10.9627 5.76464 10.7646 5.36863 10.3686L2.43726 7.43726C2.09136 7.09136 1.9184 6.9184 1.79472 6.71657C1.68506 6.53763 1.60425 6.34254 1.55526 6.13846C1.5 5.90829 1.5 5.6637 1.5 5.17452V3.1C1.5 2.53995 1.5 2.25992 1.60899 2.04601C1.70487 1.85785 1.85785 1.70487 2.04601 1.60899C2.25992 1.5 2.53995 1.5 3.1 1.5Z"
    stroke="currentColor" stroke-width="2" stroke-linecap="round" stroke-linejoin="round" />
</svg>