<svg width="24" height="21" viewBox="0 0 24 21" fill="none" xmlns="http://www.w3.org/2000/svg">
  <path
    d="M11.8645 6.19924H12.8435C13.9249 6.19924 14.8016 7.1385 14.8016 8.29713M11.8645 6.19924H10.8855C9.80413 6.19924 8.92749 7.1385 8.92749 8.29713C8.92749 9.45576 9.80413 10.395 10.8855 10.395H12.8435C13.9249 10.395 14.8016 11.3343 14.8016 12.4929C14.8016 13.6515 13.9249 14.5908 12.8435 14.5908H11.8645M11.8645 6.19924V4.10135M11.8645 14.5908H10.8855C9.80413 14.5908 8.92749 13.6515 8.92749 12.4929M11.8645 14.5908V16.6887M4.78176 15.6251C6.39907 17.8122 9.0031 19.223 11.9301 19.2029C16.7932 19.1694 20.7063 15.1988 20.6703 10.3343L20.6665 9.81623M18.9477 5.16463C17.3304 2.97746 14.7264 1.56671 11.7994 1.58685C6.9363 1.62032 3.02319 5.59089 3.05917 10.4554L3.063 10.9735M22.6458 11.3571L20.5586 9.29889L18.5021 11.3856M5.22694 9.40441L3.17042 11.4911L1.08325 9.43293"
    stroke="currentColor" stroke-width="2" stroke-linecap="round" stroke-linejoin="round" />
</svg>