<svg width="24" height="21" viewBox="0 0 24 21" fill="none" xmlns="http://www.w3.org/2000/svg">
<path d="M11.8646 6.19924H12.8436C13.925 6.19924 14.8016 7.1385 14.8016 8.29713M11.8646 6.19924H10.8856C9.80419 6.19924 8.92755 7.1385 8.92755 8.29713C8.92755 9.45576 9.80419 10.395 10.8856 10.395H12.8436C13.925 10.395 14.8016 11.3343 14.8016 12.4929C14.8016 13.6515 13.925 14.5908 12.8436 14.5908H11.8646M11.8646 6.19924V4.10135M11.8646 14.5908H10.8856C9.80419 14.5908 8.92755 13.6515 8.92755 12.4929M11.8646 14.5908V16.6887M4.78182 15.6251C6.39913 17.8122 9.00316 19.223 11.9302 19.2029C16.7932 19.1694 20.7064 15.1988 20.6704 10.3343L20.6665 9.81623M18.9478 5.16463C17.3305 2.97746 14.7264 1.56671 11.7994 1.58685C6.93636 1.62032 3.02325 5.59089 3.05923 10.4554L3.06306 10.9735M22.6458 11.3571L20.5586 9.29889L18.5021 11.3856M5.227 9.40441L3.17049 11.4911L1.08331 9.43293" stroke="#667085" stroke-width="2" stroke-linecap="round" stroke-linejoin="round"/>
</svg>
