<svg viewBox="0 0 21 21" fill="none" xmlns="http://www.w3.org/2000/svg">
  <path
    d="M4.5 19.5H7.5M13.5 19.5H16.5M16 5V13M1.5 4.7L1.5 13.3C1.5 14.4201 1.5 14.9802 1.71799 15.408C1.90973 15.7843 2.21569 16.0903 2.59202 16.282C3.01984 16.5 3.57989 16.5 4.7 16.5L16.3 16.5C17.4201 16.5 17.9802 16.5 18.408 16.282C18.7843 16.0903 19.0903 15.7843 19.282 15.408C19.5 14.9802 19.5 14.4201 19.5 13.3V4.7C19.5 3.5799 19.5 3.01984 19.282 2.59202C19.0903 2.2157 18.7843 1.90974 18.408 1.71799C17.9802 1.5 17.4201 1.5 16.3 1.5L4.7 1.5C3.5799 1.5 3.01984 1.5 2.59202 1.71799C2.2157 1.90973 1.90973 2.21569 1.71799 2.59202C1.5 3.01984 1.5 3.57989 1.5 4.7ZM10 9C10 10.3807 8.88071 11.5 7.5 11.5C6.11929 11.5 5 10.3807 5 9C5 7.61929 6.11929 6.5 7.5 6.5C8.88071 6.5 10 7.61929 10 9Z"
    stroke="currentColor" stroke-width="2" stroke-linecap="round" stroke-linejoin="round" />
</svg>