<svg width="20" height="20" viewBox="0 0 20 20" fill="none" xmlns="http://www.w3.org/2000/svg">
  <path
    d="M3 7V15M7.5 7V15M12.5 7V15M17 7V15M1 16.6L1 17.4C1 17.9601 1 18.2401 1.10899 18.454C1.20487 18.6422 1.35785 18.7951 1.54601 18.891C1.75992 19 2.03995 19 2.6 19H17.4C17.9601 19 18.2401 19 18.454 18.891C18.6422 18.7951 18.7951 18.6422 18.891 18.454C19 18.2401 19 17.9601 19 17.4V16.6C19 16.0399 19 15.7599 18.891 15.546C18.7951 15.3578 18.6422 15.2049 18.454 15.109C18.2401 15 17.9601 15 17.4 15H2.6C2.03995 15 1.75992 15 1.54601 15.109C1.35785 15.2049 1.20487 15.3578 1.10899 15.546C1 15.7599 1 16.0399 1 16.6ZM9.65291 1.07713L2.25291 2.72158C1.80585 2.82092 1.58232 2.8706 1.41546 2.9908C1.26829 3.09683 1.15273 3.2409 1.08115 3.40757C1 3.59653 1 3.82551 1 4.28348L1 5.4C1 5.96005 1 6.24008 1.10899 6.45399C1.20487 6.64215 1.35785 6.79513 1.54601 6.89101C1.75992 7 2.03995 7 2.6 7H17.4C17.9601 7 18.2401 7 18.454 6.89101C18.6422 6.79513 18.7951 6.64215 18.891 6.45399C19 6.24008 19 5.96005 19 5.4V4.28348C19 3.82551 19 3.59653 18.9188 3.40757C18.8473 3.2409 18.7317 3.09683 18.5845 2.9908C18.4177 2.8706 18.1942 2.82092 17.7471 2.72158L10.3471 1.07713C10.2176 1.04835 10.1528 1.03396 10.0874 1.02822C10.0292 1.02312 9.97077 1.02312 9.91264 1.02822C9.8472 1.03396 9.78244 1.04835 9.65291 1.07713Z"
    stroke="currentColor" stroke-width="2" stroke-linecap="round" stroke-linejoin="round" />
</svg>
