<svg viewBox="0 0 23 17" fill="none" xmlns="http://www.w3.org/2000/svg">
  <path
    d="M21.5 6.5H1.5M10.5 10.5H5.5M1.5 4.7L1.5 12.3C1.5 13.4201 1.5 13.9802 1.71799 14.408C1.90973 14.7843 2.21569 15.0903 2.59202 15.282C3.01984 15.5 3.57989 15.5 4.7 15.5L18.3 15.5C19.4201 15.5 19.9802 15.5 20.408 15.282C20.7843 15.0903 21.0903 14.7843 21.282 14.408C21.5 13.9802 21.5 13.4201 21.5 12.3V4.7C21.5 3.5799 21.5 3.01984 21.282 2.59202C21.0903 2.2157 20.7843 1.90974 20.408 1.71799C19.9802 1.5 19.4201 1.5 18.3 1.5L4.7 1.5C3.5799 1.5 3.01984 1.5 2.59202 1.71799C2.2157 1.90973 1.90973 2.21569 1.71799 2.59202C1.5 3.01984 1.5 3.57989 1.5 4.7Z"
    stroke="currentColor" stroke-width="2" stroke-linecap="round" stroke-linejoin="round" />
</svg>